<svg width="120" height="20" viewBox="0 0 120 20" fill="none" xmlns="http://www.w3.org/2000/svg">
<path d="M9.552 6.496C9.856 6.592 10.104 6.76 10.296 7C10.504 7.224 10.608 7.592 10.608 8.104C10.608 8.616 10.456 9.176 10.152 9.784C9.848 10.392 9.408 10.696 8.832 10.696C8.544 10.696 8.264 10.632 7.992 10.504C7.736 10.376 7.392 10.312 6.96 10.312C6.528 10.312 6.12 10.464 5.736 10.768C5.368 11.072 5.184 11.44 5.184 11.872V16.912C5.184 17.28 5.168 17.56 5.136 17.752C5.12 17.928 5.048 18.136 4.92 18.376C4.68 18.792 4.056 19 3.048 19C2.28 19 1.728 18.864 1.392 18.592C1.136 18.368 0.992 18.024 0.96 17.56C0.96 17.4 0.96 17.168 0.96 16.864V8.44C0.96 8.072 0.968 7.8 0.984 7.624C1.016 7.432 1.088 7.224 1.2 7C1.424 6.568 2.048 6.352 3.072 6.352C4.032 6.352 4.632 6.536 4.872 6.904C5.048 7.16 5.136 7.424 5.136 7.696C5.216 7.584 5.328 7.448 5.472 7.288C5.632 7.128 5.96 6.912 6.456 6.64C6.952 6.368 7.384 6.232 7.752 6.232C8.136 6.232 8.456 6.256 8.712 6.304C8.968 6.336 9.248 6.4 9.552 6.496ZM23.3942 11.176C23.3942 12.152 23.1462 12.88 22.6502 13.36C22.1702 13.824 21.6342 14.056 21.0422 14.056H15.3542C15.3542 14.504 15.6182 14.88 16.1462 15.184C16.6742 15.488 17.2022 15.64 17.7302 15.64C18.6582 15.64 19.3862 15.544 19.9142 15.352L20.1782 15.256C20.5622 15.08 20.8822 14.992 21.1382 14.992C21.6502 14.992 22.0902 15.352 22.4582 16.072C22.6662 16.504 22.7702 16.872 22.7702 17.176C22.7702 18.6 21.0662 19.312 17.6582 19.312C16.4742 19.312 15.4182 19.112 14.4902 18.712C13.5782 18.296 12.8662 17.752 12.3542 17.08C11.3462 15.784 10.8422 14.336 10.8422 12.736C10.8422 10.72 11.4902 9.112 12.7862 7.912C14.0982 6.696 15.7302 6.088 17.6822 6.088C19.9062 6.088 21.5382 6.872 22.5782 8.44C23.1222 9.272 23.3942 10.184 23.3942 11.176ZM18.3302 11.872C18.9382 11.872 19.2422 11.616 19.2422 11.104C19.2422 10.736 19.0982 10.44 18.8102 10.216C18.5382 9.992 18.1382 9.88 17.6102 9.88C17.0982 9.88 16.5862 10.096 16.0742 10.528C15.5622 10.944 15.3062 11.392 15.3062 11.872H18.3302ZM29.088 8.032C29.84 6.896 30.744 6.328 31.8 6.328C33.432 6.328 34.648 7.024 35.448 8.416C35.624 8.176 35.832 7.928 36.072 7.672C36.328 7.4 36.728 7.112 37.272 6.808C37.816 6.488 38.376 6.328 38.952 6.328C40.232 6.328 41.304 6.824 42.168 7.816C43.032 8.792 43.464 10.416 43.464 12.688V16.888C43.464 17.256 43.448 17.536 43.416 17.728C43.4 17.904 43.328 18.112 43.2 18.352C42.992 18.784 42.376 19 41.352 19C40.344 19 39.728 18.776 39.504 18.328C39.392 18.088 39.32 17.88 39.288 17.704C39.272 17.512 39.264 17.232 39.264 16.864V12.664C39.264 11.272 38.768 10.576 37.776 10.576C37.216 10.576 36.832 10.76 36.624 11.128C36.432 11.496 36.336 12.016 36.336 12.688V16.888C36.336 17.272 36.32 17.552 36.288 17.728C36.272 17.904 36.2 18.112 36.072 18.352C35.848 18.784 35.224 19 34.2 19C33.192 19 32.576 18.776 32.352 18.328C32.24 18.088 32.168 17.88 32.136 17.704C32.12 17.512 32.112 17.232 32.112 16.864V12.664C32.112 11.272 31.616 10.576 30.624 10.576C29.664 10.576 29.184 11.272 29.184 12.664V16.912C29.184 17.28 29.168 17.56 29.136 17.752C29.12 17.928 29.048 18.136 28.92 18.376C28.68 18.792 28.056 19 27.048 19C26.04 19 25.424 18.784 25.2 18.352C25.088 18.112 25.016 17.904 24.984 17.728C24.968 17.552 24.96 17.272 24.96 16.888V8.44C24.96 8.072 24.968 7.8 24.984 7.624C25.016 7.432 25.096 7.224 25.224 7C25.464 6.568 26.032 6.352 26.928 6.352C27.824 6.352 28.408 6.496 28.68 6.784C28.952 7.072 29.088 7.488 29.088 8.032ZM58.8045 6.352C60.4045 6.352 61.7325 6.968 62.7885 8.2C63.8605 9.416 64.3965 10.904 64.3965 12.664V16.888C64.3965 17.256 64.3805 17.536 64.3485 17.728C64.3325 17.904 64.2685 18.104 64.1565 18.328C63.9325 18.76 63.3085 18.976 62.2845 18.976C61.1485 18.976 60.4925 18.68 60.3165 18.088C60.2205 17.816 60.1725 17.408 60.1725 16.864V12.64C60.1725 11.984 59.9805 11.472 59.5965 11.104C59.2285 10.736 58.7245 10.552 58.0845 10.552C57.4605 10.552 56.9485 10.744 56.5485 11.128C56.1645 11.512 55.9725 12.016 55.9725 12.64V16.888C55.9725 17.256 55.9565 17.536 55.9245 17.728C55.9085 17.904 55.8365 18.104 55.7085 18.328C55.5005 18.76 54.8845 18.976 53.8605 18.976C52.8525 18.976 52.2365 18.76 52.0125 18.328C51.9005 18.088 51.8285 17.88 51.7965 17.704C51.7805 17.512 51.7725 17.232 51.7725 16.864V8.368C51.7725 8.016 51.7805 7.752 51.7965 7.576C51.8285 7.384 51.9085 7.176 52.0365 6.952C52.2605 6.552 52.8765 6.352 53.8845 6.352C54.8605 6.352 55.4605 6.536 55.6845 6.904C55.8445 7.176 55.9245 7.504 55.9245 7.888C55.9885 7.776 56.1325 7.616 56.3565 7.408C56.5805 7.2 56.7965 7.032 57.0045 6.904C57.5485 6.536 58.1485 6.352 58.8045 6.352ZM74.7992 1.096C74.9272 0.855999 75.1432 0.687999 75.4472 0.592C75.7512 0.495999 76.1512 0.447999 76.6472 0.447999C77.1592 0.447999 77.5672 0.495999 77.8712 0.592C78.1752 0.687999 78.3832 0.855999 78.4952 1.096C78.6232 1.336 78.6952 1.552 78.7112 1.744C78.7432 1.92 78.7592 2.192 78.7592 2.56V16.888C78.7592 17.256 78.7432 17.536 78.7112 17.728C78.6952 17.904 78.6232 18.104 78.4952 18.328C78.2552 18.76 77.5752 18.976 76.4552 18.976C75.3512 18.976 74.7352 18.584 74.6072 17.8C73.9352 18.568 72.9992 18.952 71.7992 18.952C70.3592 18.952 69.0472 18.328 67.8632 17.08C66.6792 15.816 66.0872 14.352 66.0872 12.688C66.0872 11.008 66.6792 9.536 67.8632 8.272C69.0632 7.008 70.3752 6.376 71.7992 6.376C72.9832 6.376 73.9032 6.776 74.5592 7.576V2.536C74.5592 2.168 74.5672 1.896 74.5832 1.72C74.6152 1.528 74.6872 1.32 74.7992 1.096ZM70.9112 14.128C71.3272 14.56 71.8312 14.776 72.4232 14.776C73.0152 14.776 73.5032 14.56 73.8872 14.128C74.2872 13.696 74.4872 13.224 74.4872 12.712C74.4872 12.184 74.2952 11.696 73.9112 11.248C73.5432 10.8 73.0392 10.576 72.3992 10.576C71.7592 10.576 71.2472 10.8 70.8632 11.248C70.4792 11.68 70.2872 12.16 70.2872 12.688C70.2872 13.216 70.4952 13.696 70.9112 14.128ZM90.8693 8.032C91.6213 6.896 92.5253 6.328 93.5813 6.328C95.2133 6.328 96.4293 7.024 97.2293 8.416C97.4053 8.176 97.6133 7.928 97.8533 7.672C98.1093 7.4 98.5093 7.112 99.0533 6.808C99.5973 6.488 100.157 6.328 100.733 6.328C102.013 6.328 103.085 6.824 103.949 7.816C104.813 8.792 105.245 10.416 105.245 12.688V16.888C105.245 17.256 105.229 17.536 105.197 17.728C105.181 17.904 105.109 18.112 104.981 18.352C104.773 18.784 104.157 19 103.133 19C102.125 19 101.509 18.776 101.285 18.328C101.173 18.088 101.101 17.88 101.069 17.704C101.053 17.512 101.045 17.232 101.045 16.864V12.664C101.045 11.272 100.549 10.576 99.5573 10.576C98.9973 10.576 98.6133 10.76 98.4053 11.128C98.2133 11.496 98.1172 12.016 98.1172 12.688V16.888C98.1172 17.272 98.1013 17.552 98.0693 17.728C98.0533 17.904 97.9813 18.112 97.8533 18.352C97.6293 18.784 97.0053 19 95.9813 19C94.9733 19 94.3573 18.776 94.1333 18.328C94.0213 18.088 93.9493 17.88 93.9173 17.704C93.9013 17.512 93.8933 17.232 93.8933 16.864V12.664C93.8933 11.272 93.3973 10.576 92.4053 10.576C91.4453 10.576 90.9653 11.272 90.9653 12.664V16.912C90.9653 17.28 90.9493 17.56 90.9173 17.752C90.9013 17.928 90.8293 18.136 90.7013 18.376C90.4613 18.792 89.8373 19 88.8293 19C87.8213 19 87.2053 18.784 86.9813 18.352C86.8693 18.112 86.7973 17.904 86.7653 17.728C86.7493 17.552 86.7413 17.272 86.7413 16.888V8.44C86.7413 8.072 86.7493 7.8 86.7653 7.624C86.7973 7.432 86.8773 7.224 87.0053 7C87.2453 6.568 87.8133 6.352 88.7093 6.352C89.6053 6.352 90.1893 6.496 90.4613 6.784C90.7333 7.072 90.8693 7.488 90.8693 8.032ZM119.347 11.176C119.347 12.152 119.099 12.88 118.603 13.36C118.123 13.824 117.587 14.056 116.995 14.056H111.307C111.307 14.504 111.571 14.88 112.099 15.184C112.627 15.488 113.155 15.64 113.683 15.64C114.611 15.64 115.339 15.544 115.867 15.352L116.131 15.256C116.515 15.08 116.835 14.992 117.091 14.992C117.603 14.992 118.043 15.352 118.411 16.072C118.619 16.504 118.723 16.872 118.723 17.176C118.723 18.6 117.019 19.312 113.611 19.312C112.427 19.312 111.371 19.112 110.443 18.712C109.531 18.296 108.819 17.752 108.307 17.08C107.299 15.784 106.795 14.336 106.795 12.736C106.795 10.72 107.443 9.112 108.739 7.912C110.051 6.696 111.683 6.088 113.635 6.088C115.859 6.088 117.491 6.872 118.531 8.44C119.075 9.272 119.347 10.184 119.347 11.176ZM114.283 11.872C114.891 11.872 115.195 11.616 115.195 11.104C115.195 10.736 115.051 10.44 114.763 10.216C114.491 9.992 114.091 9.88 113.563 9.88C113.051 9.88 112.539 10.096 112.027 10.528C111.515 10.944 111.259 11.392 111.259 11.872H114.283Z" fill="white"/>
<path d="M45.6141 15.352C45.7741 15.032 46.0141 14.816 46.3341 14.704C46.6701 14.592 47.1821 14.536 47.8701 14.536C48.5741 14.536 49.0781 14.688 49.3821 14.992C49.7021 15.296 49.8621 15.776 49.8621 16.432V16.816C49.8621 17.2 49.8461 17.488 49.8141 17.68C49.7981 17.856 49.7261 18.072 49.5981 18.328C49.3421 18.792 48.7261 19.024 47.7501 19.024C46.7901 19.024 46.1501 18.872 45.8301 18.568C45.5261 18.248 45.3741 17.64 45.3741 16.744C45.3741 16.12 45.4541 15.656 45.6141 15.352ZM48.8301 12.544C48.5261 12.624 48.1181 12.664 47.6061 12.664C47.0941 12.664 46.6861 12.624 46.3821 12.544C46.0781 12.464 45.8621 12.32 45.7341 12.112C45.6221 11.904 45.5501 11.72 45.5181 11.56C45.5021 11.4 45.4941 11.152 45.4941 10.816V3.208C45.4941 2.872 45.5021 2.624 45.5181 2.464C45.5501 2.288 45.6301 2.096 45.7581 1.888C45.8861 1.68 46.1021 1.536 46.4061 1.456C46.7101 1.36 47.1181 1.312 47.6301 1.312C48.1421 1.312 48.5501 1.36 48.8541 1.456C49.1581 1.536 49.3661 1.688 49.4781 1.912C49.6061 2.12 49.6781 2.312 49.6941 2.488C49.7261 2.648 49.7421 2.896 49.7421 3.232V10.84C49.7421 11.176 49.7261 11.424 49.6941 11.584C49.6781 11.744 49.6061 11.928 49.4781 12.136C49.3501 12.328 49.1341 12.464 48.8301 12.544Z" fill="#48FFE9"/>
</svg>
